<?xml version="1.0" standalone="no"?>
<!DOCTYPE svg PUBLIC "-//W3C//DTD SVG 20010904//EN"
 "http://www.w3.org/TR/2001/REC-SVG-20010904/DTD/svg10.dtd">
<svg version="1.0" xmlns="http://www.w3.org/2000/svg"
 width="300.000000pt" height="300.000000pt" viewBox="0 0 300.000000 300.000000"
 preserveAspectRatio="xMidYMid meet">

<g transform="translate(0.000000,300.000000) scale(0.100000,-0.100000)"
fill="#000000" stroke="none">
<path d="M830 2057 l0 -254 138 -91 137 -92 5 80 5 80 163 -105 c89 -58 166
-105 170 -105 4 0 79 47 167 104 l160 103 5 -78 5 -78 138 87 137 87 0 252 c0
139 -2 253 -4 253 -6 0 -109 -65 -404 -252 -120 -76 -208 -126 -215 -122 -7 4
-127 80 -267 169 -140 89 -274 174 -297 189 l-43 26 0 -253z"/>
<path d="M1983 1608 l-73 -49 13 -32 c8 -18 40 -102 73 -187 l59 -155 3 123
c1 68 1 174 0 236 l-3 113 -72 -49z"/>
<path d="M830 1487 l0 -163 305 -193 305 -192 156 100 c85 56 159 101 163 101
5 0 66 -63 135 -140 70 -77 129 -140 131 -140 3 0 -2 17 -10 38 -8 20 -61 157
-118 304 -56 146 -106 267 -110 268 -5 1 -82 -43 -173 -99 -90 -56 -168 -101
-174 -101 -5 0 -142 86 -305 190 -163 105 -298 190 -301 190 -2 0 -4 -73 -4
-163z"/>
<path d="M830 995 c0 -102 3 -185 6 -185 7 0 274 181 274 186 0 5 -268 184
-275 184 -3 0 -5 -83 -5 -185z"/>
</g>
</svg>
